<?xml version="1.0" encoding="utf-8"?>
<!-- Svg Vector Icons : http://www.onlinewebfonts.com/icon -->
<!DOCTYPE svg PUBLIC "-//W3C//DTD SVG 1.1//EN" "http://www.w3.org/Graphics/SVG/1.1/DTD/svg11.dtd">
<svg version="1.1" xmlns="http://www.w3.org/2000/svg" xmlns:xlink="http://www.w3.org/1999/xlink" x="0px" y="0px" viewBox="0 0 1000 1000" enable-background="new 0 0 1000 1000" xml:space="preserve">
<metadata> Svg Vector Icons : http://www.onlinewebfonts.com/icon </metadata>
<g><g transform="translate(0.000000,511.000000) scale(0.100000,-0.100000)"><path d="M4697.3,4634.2c-302.7-68-627.3-278.6-809.4-522c-539.6-728.2-298.3-1717.4,517.6-2107.8c83.3-39.5,173.3-79,199.6-85.5c43.9-11,43.9-24.1,43.9-737v-726H2894.4H1139.7l-4.4-1076.9l-6.6-1077l-136-50.4c-386-147-686.5-458.4-835.7-870.8c-50.5-140.3-57-193-57-434.3c0-241.3,6.6-293.9,57-434.3c81.1-228.1,182-386,346.5-552.7c166.7-164.5,324.6-265.4,552.7-346.6c140.4-50.4,193-57,434.3-57s293.9,6.6,434.3,57c228.1,81.2,386,182.1,552.7,346.6c164.5,166.7,265.4,324.6,346.5,552.7c50.5,140.4,57,193,57,434.3c0,241.3-6.6,293.9-57,434.3c-149.1,412.4-449.6,723.8-835.7,870.8l-136,50.4l-6.6,726l-4.4,726H5000h3158.5l-4.4-726l-6.6-726l-136-50.4c-386-147-686.5-458.4-835.7-870.8c-50.4-140.3-57-193-57-434.3c0-241.3,6.6-293.9,57-434.3c81.2-228.1,182.1-386,346.6-552.7c166.7-164.5,324.6-265.4,552.7-346.6c140.4-50.4,193-57,434.3-57s293.9,6.6,434.3,57c228.1,81.2,386.1,182.1,552.8,346.6c164.5,166.7,265.4,324.6,346.5,552.7c50.5,140.4,57.1,193,57.1,434.3c0,241.3-6.6,293.9-57.1,434.3c-149.1,412.4-449.6,723.8-835.7,870.8l-136,50.4l-6.6,1077l-4.4,1076.9H7105.6H5350.9v726c0,712.8,0,726,43.9,737c26.3,6.6,116.2,46.1,199.6,85.5c754.5,361.9,1030.9,1261.2,607.5,1978.4c-92.1,157.9-324.6,390.4-482.5,482.5C5423.3,4640.8,5017.5,4708.8,4697.3,4634.2z M5289.5,3903.8c131.6-57,291.7-217.1,353.1-350.9c70.2-153.5,68-436.5-4.4-585.6c-70.2-138.2-204-272-342.2-342.2c-155.7-74.6-432.1-74.6-592.2,2.2c-136,65.8-272,199.6-335.6,331.2c-61.4,127.2-83.4,335.6-50.5,473.8c54.8,221.5,252.2,432.1,471.6,502.3C4914.4,3976.2,5162.3,3960.8,5289.5,3903.8z M1788.9-2417.4c136-68,285.1-215,344.4-346.6c70.2-153.5,68-436.5-4.4-585.6c-70.2-138.2-204-272-342.2-342.2c-149.1-72.4-432.1-74.6-585.6-4.4c-476,217.1-552.7,888.3-138.2,1204.2C1258.1-2342.9,1569.6-2312.2,1788.9-2417.4z M8807.7-2417.4c136-68,285.1-215,344.3-346.6c70.2-153.5,68-436.5-4.4-585.6c-70.2-138.2-204-272-342.2-342.2c-149.2-72.4-432.1-74.6-585.7-4.4c-475.9,217.1-552.7,888.3-138.2,1204.2C8276.9-2342.9,8588.3-2312.2,8807.7-2417.4z"/></g></g>
</svg>